<svg width="12" height="12" viewBox="0 0 12 12" fill="none" xmlns="http://www.w3.org/2000/svg">
<path d="M10.985 9.16512C10.985 9.34512 10.945 9.53012 10.86 9.71012C10.775 9.89012 10.665 10.0601 10.52 10.2201C10.275 10.4901 10.005 10.6851 9.7 10.8101C9.4 10.9351 9.075 11.0001 8.725 11.0001C8.215 11.0001 7.67 10.8801 7.095 10.6351C6.52 10.3901 5.945 10.0601 5.375 9.64512C4.8 9.22512 4.255 8.76012 3.735 8.24512C3.22 7.72512 2.755 7.18012 2.34 6.61012C1.93 6.04012 1.6 5.47012 1.36 4.90512C1.12 4.33512 1 3.79012 1 3.27012C1 2.93012 1.06 2.60512 1.18 2.30512C1.3 2.00012 1.49 1.72012 1.755 1.47012C2.075 1.15512 2.425 1.00012 2.795 1.00012C2.935 1.00012 3.075 1.03012 3.2 1.09012C3.33 1.15012 3.445 1.24012 3.535 1.37012L4.695 3.00512C4.785 3.13012 4.85 3.24512 4.895 3.35512C4.94 3.46012 4.965 3.56512 4.965 3.66012C4.965 3.78012 4.93 3.90012 4.86 4.01512C4.795 4.13012 4.7 4.25012 4.58 4.37012L4.2 4.76512C4.145 4.82012 4.12 4.88512 4.12 4.96512C4.12 5.00512 4.125 5.04012 4.135 5.08012C4.15 5.12012 4.165 5.15012 4.175 5.18012C4.265 5.34512 4.42 5.56012 4.64 5.82012C4.865 6.08012 5.105 6.34512 5.365 6.61012C5.635 6.87512 5.895 7.12012 6.16 7.34512C6.42 7.56512 6.635 7.71512 6.805 7.80512C6.83 7.81512 6.86 7.83012 6.895 7.84512C6.935 7.86012 6.975 7.86512 7.02 7.86512C7.105 7.86512 7.17 7.83512 7.225 7.78012L7.605 7.40512C7.73 7.28012 7.85 7.18512 7.965 7.12512C8.08 7.05512 8.195 7.02012 8.32 7.02012C8.415 7.02012 8.515 7.04012 8.625 7.08512C8.735 7.13012 8.85 7.19512 8.975 7.28012L10.63 8.45512C10.76 8.54512 10.85 8.65012 10.905 8.77512C10.955 8.90012 10.985 9.02512 10.985 9.16512Z" stroke="#0FE16D" stroke-miterlimit="10"/>
<path d="M8.1001 3.90012H10.5001M8.1001 3.90012V1.50012V3.90012Z" stroke="#0FE16D" stroke-linecap="round" stroke-linejoin="round"/>
</svg>
