<svg width="30" height="30" viewBox="0 0 30 30" fill="none" xmlns="http://www.w3.org/2000/svg">
<path d="M23.125 24.375H18.125" stroke="white" stroke-width="1.5" stroke-linecap="round" stroke-linejoin="round"/>
<path d="M20.625 26.875V21.875" stroke="white" stroke-width="1.5" stroke-linecap="round" stroke-linejoin="round"/>
<path d="M15.2002 13.5875C15.0752 13.575 14.9252 13.575 14.7877 13.5875C11.8127 13.4875 9.45024 11.05 9.45024 8.05C9.43774 4.9875 11.9252 2.5 14.9877 2.5C18.0502 2.5 20.5377 4.9875 20.5377 8.05C20.5377 11.05 18.1627 13.4875 15.2002 13.5875Z" stroke="white" stroke-width="1.5" stroke-linecap="round" stroke-linejoin="round"/>
<path d="M14.9873 27.2627C12.7123 27.2627 10.4498 26.6877 8.7248 25.5377C5.6998 23.5127 5.6998 20.2127 8.7248 18.2002C12.1623 15.9002 17.7998 15.9002 21.2373 18.2002" stroke="white" stroke-width="1.5" stroke-linecap="round" stroke-linejoin="round"/>
</svg>
