<svg width="25" height="24" viewBox="0 0 25 24" fill="none" xmlns="http://www.w3.org/2000/svg">
<path d="M3.125 9.10998V14.88C3.125 17 3.125 17 5.125 18.35L10.625 21.53C11.455 22.01 12.805 22.01 13.625 21.53L19.125 18.35C21.125 17 21.125 17 21.125 14.89V9.10998C21.125 6.99998 21.125 6.99999 19.125 5.64999L13.625 2.46999C12.805 1.98999 11.455 1.98999 10.625 2.46999L5.125 5.64999C3.125 6.99999 3.125 6.99998 3.125 9.10998Z" stroke="#A9A9A9" stroke-width="1.5" stroke-linecap="round" stroke-linejoin="round"/>
<path d="M12.125 15C13.7819 15 15.125 13.6569 15.125 12C15.125 10.3431 13.7819 9 12.125 9C10.4681 9 9.125 10.3431 9.125 12C9.125 13.6569 10.4681 15 12.125 15Z" stroke="#A9A9A9" stroke-width="1.5" stroke-linecap="round" stroke-linejoin="round"/>
</svg>
